<svg xmlns="http://www.w3.org/2000/svg" width="1893" height="1058.5" viewBox="0 0 1893 1058.5">
  <g id="Group_2" data-name="Group 2" transform="translate(-14 -10)">
    <g id="Rectangle_1" data-name="Rectangle 1" transform="translate(14 10)" fill="none" stroke="#000" stroke-width="1">
      <rect width="1893" height="1058" rx="18" stroke="none"/>
      <rect x="0.5" y="0.5" width="1892" height="1057" rx="17.5" fill="none"/>
    </g>
    <line id="Line_1" data-name="Line 1" y2="1058" transform="translate(119.5 10.5)" fill="none" stroke="#000" stroke-width="1"/>
    <g id="Rectangle_2" data-name="Rectangle 2" transform="translate(150 48)" fill="none" stroke="#000" stroke-width="1">
      <rect width="528" height="333" rx="24" stroke="none"/>
      <rect x="0.5" y="0.5" width="527" height="332" rx="23.5" fill="none"/>
    </g>
    <g id="Rectangle_3" data-name="Rectangle 3" transform="translate(748 48)" fill="none" stroke="#000" stroke-width="1">
      <rect width="527" height="333" rx="24" stroke="none"/>
      <rect x="0.5" y="0.5" width="526" height="332" rx="23.5" fill="none"/>
    </g>
    <g id="Rectangle_4" data-name="Rectangle 4" transform="translate(1345 742)" fill="none" stroke="#000" stroke-width="1">
      <rect width="527" height="293" rx="24" stroke="none"/>
      <rect x="0.5" y="0.5" width="526" height="292" rx="23.5" fill="none"/>
    </g>
    <g id="Rectangle_5" data-name="Rectangle 5" transform="translate(160 440)" fill="none" stroke="#000" stroke-width="1">
      <rect width="1117" height="595" rx="24" stroke="none"/>
      <rect x="0.5" y="0.5" width="1116" height="594" rx="23.5" fill="none"/>
    </g>
    <g id="Rectangle_6" data-name="Rectangle 6" transform="translate(1345 48)" fill="none" stroke="#000" stroke-width="1">
      <rect width="527" height="641" rx="24" stroke="none"/>
      <rect x="0.5" y="0.5" width="526" height="640" rx="23.5" fill="none"/>
    </g>
    <path id="Path_1" data-name="Path 1" d="M150,201.192s29.01-55.767,63.456-43.664,46.221,77.363,74.328,92.073,20.193-44.386,46.784-48.409,38.539,26.838,59.58,32.316,19.64-25.914,36.575-18.054,14.736,62.835,31.168,49.493S471.972,187.3,484.9,179.44s32.137,40.727,58.851,54.069,15.544-32.316,45.009-32.316,20.328,41.659,42.712,32.316,45.019-91.438,45.019-91.438" transform="translate(0 -16)" fill="none" stroke="#707070" stroke-width="4"/>
    <path id="Path_2" data-name="Path 2" d="M150,201.192s29.01-55.767,63.456-43.664,46.221,77.363,74.328,92.073,20.193-44.386,46.784-48.409,38.539,26.838,59.58,32.316,19.64-25.914,36.575-18.054,14.736,62.835,31.168,49.493" transform="translate(0 -16)" fill="none" stroke="#000" stroke-width="7"/>
    <circle id="Ellipse_1" data-name="Ellipse 1" cx="9" cy="9" r="9" transform="translate(457 237)" fill="#0d0d0d"/>
    <text id="BUDGET" transform="translate(276 122)" fill="#070707" font-size="68" font-family="Poppins-Black, Poppins" font-weight="800"><tspan x="0" y="0">BUDGET</tspan></text>
    <text id="_10_" data-name="+10%" transform="translate(457 281)" fill="#070707" font-size="30" font-family="Poppins-Bold, Poppins" font-weight="700"><tspan x="0" y="0">+10%</tspan></text>
    <text id="_1_203" data-name="£1,203" transform="translate(324 358)" fill="#191919" font-size="70" font-family="Poppins-Bold, Poppins" font-weight="700"><tspan x="0" y="0">£1,203</tspan></text>
    <text id="UPDATE" transform="translate(1471 833)" fill="#070707" font-size="68" font-family="Poppins-Black, Poppins" font-weight="800"><tspan x="0" y="0">UPDATE</tspan></text>
    <text id="CATEGORIES" transform="translate(794 122)" fill="#070707" font-size="68" font-family="Poppins-Black, Poppins" font-weight="800"><tspan x="0" y="0">CATEGORIES</tspan></text>
    <line id="Line_2" data-name="Line 2" y2="540" transform="translate(208.5 461.5)" fill="none" stroke="#000" stroke-width="2"/>
    <line id="Line_3" data-name="Line 3" x2="1022" transform="translate(208.5 1001.5)" fill="none" stroke="#000" stroke-width="2"/>
    <line id="Line_4" data-name="Line 4" y2="10.409" transform="translate(268.5 1001.5)" fill="none" stroke="#000" stroke-width="2"/>
    <line id="Line_5" data-name="Line 5" y2="10.409" transform="translate(328.5 1001.5)" fill="none" stroke="#000" stroke-width="2"/>
    <line id="Line_6" data-name="Line 6" y2="10.409" transform="translate(388.5 1001.5)" fill="none" stroke="#000" stroke-width="2"/>
    <line id="Line_7" data-name="Line 7" y2="10.409" transform="translate(448.5 1001.5)" fill="none" stroke="#000" stroke-width="2"/>
    <line id="Line_8" data-name="Line 8" y2="10.409" transform="translate(508.5 1001.5)" fill="none" stroke="#000" stroke-width="2"/>
    <line id="Line_9" data-name="Line 9" y2="10.409" transform="translate(568.5 1001.5)" fill="none" stroke="#000" stroke-width="2"/>
    <line id="Line_10" data-name="Line 10" y2="10.409" transform="translate(628.5 1001.5)" fill="none" stroke="#000" stroke-width="2"/>
    <line id="Line_11" data-name="Line 11" y2="10.409" transform="translate(688.5 1001.5)" fill="none" stroke="#000" stroke-width="2"/>
    <line id="Line_12" data-name="Line 12" y2="10.409" transform="translate(748.5 1001.5)" fill="none" stroke="#000" stroke-width="2"/>
    <line id="Line_13" data-name="Line 13" y2="10.409" transform="translate(808.5 1001.5)" fill="none" stroke="#000" stroke-width="2"/>
    <line id="Line_14" data-name="Line 14" y2="10.409" transform="translate(868.5 1001.5)" fill="none" stroke="#000" stroke-width="2"/>
    <line id="Line_15" data-name="Line 15" y2="10.409" transform="translate(928.5 1001.5)" fill="none" stroke="#000" stroke-width="2"/>
    <line id="Line_16" data-name="Line 16" y2="10.409" transform="translate(988.5 1001.5)" fill="none" stroke="#000" stroke-width="2"/>
    <line id="Line_17" data-name="Line 17" y2="10.409" transform="translate(1048.5 1001.5)" fill="none" stroke="#000" stroke-width="2"/>
    <line id="Line_18" data-name="Line 18" y2="10.409" transform="translate(1108.5 1001.5)" fill="none" stroke="#000" stroke-width="2"/>
    <line id="Line_19" data-name="Line 19" y2="10.409" transform="translate(1168.5 1001.5)" fill="none" stroke="#000" stroke-width="2"/>
    <line id="Line_20" data-name="Line 20" y2="10.409" transform="translate(1230.5 1001.5)" fill="none" stroke="#000" stroke-width="2"/>
    <line id="Line_21" data-name="Line 21" y2="10.409" transform="translate(208.5 1001.5)" fill="none" stroke="#000" stroke-width="2"/>
    <line id="Line_22" data-name="Line 22" y2="10.409" transform="translate(208.705 941.705) rotate(90)" fill="none" stroke="#000" stroke-width="2"/>
    <line id="Line_39" data-name="Line 39" y2="10.409" transform="translate(208.705 1001.705) rotate(90)" fill="none" stroke="#000" stroke-width="2"/>
    <line id="Line_40" data-name="Line 40" y2="10.409" transform="translate(208.705 881.705) rotate(90)" fill="none" stroke="#000" stroke-width="2"/>
    <line id="Line_41" data-name="Line 41" y2="10.409" transform="translate(208.705 761.705) rotate(90)" fill="none" stroke="#000" stroke-width="2"/>
    <line id="Line_42" data-name="Line 42" y2="10.409" transform="translate(208.705 821.705) rotate(90)" fill="none" stroke="#000" stroke-width="2"/>
    <line id="Line_43" data-name="Line 43" y2="10.409" transform="translate(208.705 701.705) rotate(90)" fill="none" stroke="#000" stroke-width="2"/>
    <line id="Line_44" data-name="Line 44" y2="10.409" transform="translate(208.705 641.705) rotate(90)" fill="none" stroke="#000" stroke-width="2"/>
    <line id="Line_45" data-name="Line 45" y2="10.409" transform="translate(208.705 581.705) rotate(90)" fill="none" stroke="#000" stroke-width="2"/>
    <line id="Line_46" data-name="Line 46" y2="10.409" transform="translate(208.705 461.705) rotate(90)" fill="none" stroke="#000" stroke-width="2"/>
    <line id="Line_47" data-name="Line 47" y2="10.409" transform="translate(208.705 521.705) rotate(90)" fill="none" stroke="#000" stroke-width="2"/>
    <line id="Line_48" data-name="Line 48" y1="54" x2="55" transform="translate(210.5 459.5)" fill="none" stroke="#707070" stroke-width="1"/>
    <line id="Line_49" data-name="Line 49" y1="98" x2="98" transform="translate(210.5 459.5)" fill="none" stroke="#707070" stroke-width="1"/>
    <line id="Line_50" data-name="Line 50" y1="148" x2="147" transform="translate(210.5 459.5)" fill="none" stroke="#707070" stroke-width="1"/>
    <line id="Line_51" data-name="Line 51" y1="203" x2="202" transform="translate(210.5 459.5)" fill="none" stroke="#707070" stroke-width="1"/>
    <line id="Line_52" data-name="Line 52" y1="258" x2="257" transform="translate(210.5 459.5)" fill="none" stroke="#707070" stroke-width="1"/>
    <line id="Line_53" data-name="Line 53" y1="316" x2="315" transform="translate(210.5 459.5)" fill="none" stroke="#707070" stroke-width="1"/>
    <line id="Line_54" data-name="Line 54" y1="370" x2="370" transform="translate(210.5 459.5)" fill="none" stroke="#707070" stroke-width="1"/>
    <line id="Line_55" data-name="Line 55" y1="435" x2="434" transform="translate(210.5 459.5)" fill="none" stroke="#707070" stroke-width="1"/>
    <line id="Line_56" data-name="Line 56" y1="502" x2="501" transform="translate(210.5 459.5)" fill="none" stroke="#707070" stroke-width="1"/>
    <line id="Line_57" data-name="Line 57" y1="539" x2="538" transform="translate(238.5 459.5)" fill="none" stroke="#707070" stroke-width="1"/>
    <line id="Line_58" data-name="Line 58" y1="539" x2="538" transform="translate(308.5 459.5)" fill="none" stroke="#707070" stroke-width="1"/>
    <line id="Line_59" data-name="Line 59" y1="539" x2="538" transform="translate(375.5 460.5)" fill="none" stroke="#707070" stroke-width="1"/>
    <line id="Line_60" data-name="Line 60" y1="539" x2="538" transform="translate(525.5 460.5)" fill="none" stroke="#707070" stroke-width="1"/>
    <line id="Line_61" data-name="Line 61" y1="539" x2="538" transform="translate(451.5 460.5)" fill="none" stroke="#707070" stroke-width="1"/>
    <line id="Line_62" data-name="Line 62" y1="539" x2="538" transform="translate(601.5 460.5)" fill="none" stroke="#707070" stroke-width="1"/>
    <line id="Line_63" data-name="Line 63" y1="539" x2="538" transform="translate(670.5 460.5)" fill="none" stroke="#707070" stroke-width="1"/>
    <line id="Line_64" data-name="Line 64" y1="486" x2="487" transform="translate(744.5 513.5)" fill="none" stroke="#707070" stroke-width="1"/>
    <line id="Line_65" data-name="Line 65" y1="425" x2="426" transform="translate(805.5 574.5)" fill="none" stroke="#707070" stroke-width="1"/>
    <line id="Line_66" data-name="Line 66" y1="348" x2="349" transform="translate(882.5 651.5)" fill="none" stroke="#707070" stroke-width="1"/>
    <line id="Line_67" data-name="Line 67" y1="278" x2="278" transform="translate(953.5 720.5)" fill="none" stroke="#707070" stroke-width="1"/>
    <line id="Line_68" data-name="Line 68" y1="206" x2="206" transform="translate(1025.5 792.5)" fill="none" stroke="#707070" stroke-width="1"/>
    <line id="Line_69" data-name="Line 69" y1="138" x2="139" transform="translate(1092.5 860.5)" fill="none" stroke="#707070" stroke-width="1"/>
    <line id="Line_70" data-name="Line 70" y1="86" x2="86" transform="translate(1145.5 912.5)" fill="none" stroke="#707070" stroke-width="1"/>
    <line id="Line_71" data-name="Line 71" y1="42" x2="43" transform="translate(1188.5 957.5)" fill="none" stroke="#707070" stroke-width="1"/>
    <line id="Line_72" data-name="Line 72" x2="527" transform="translate(1345.5 146.5)" fill="none" stroke="#000" stroke-width="2"/>
    <line id="Line_73" data-name="Line 73" y2="98" transform="translate(1512.5 48.5)" fill="none" stroke="#000" stroke-width="2"/>
    <line id="Line_74" data-name="Line 74" y2="98" transform="translate(1707.5 48.5)" fill="none" stroke="#000" stroke-width="2"/>
    <line id="Line_75" data-name="Line 75" x2="527" transform="translate(1345.5 214.5)" fill="none" stroke="#000" stroke-width="1"/>
    <line id="Line_76" data-name="Line 76" x2="527" transform="translate(1345.5 282.5)" fill="none" stroke="#000" stroke-width="1"/>
    <line id="Line_77" data-name="Line 77" x2="527" transform="translate(1345.5 350.5)" fill="none" stroke="#000" stroke-width="1"/>
    <line id="Line_78" data-name="Line 78" x2="527" transform="translate(1345.5 418.5)" fill="none" stroke="#000" stroke-width="1"/>
    <line id="Line_79" data-name="Line 79" x2="527" transform="translate(1345.5 486.5)" fill="none" stroke="#000" stroke-width="1"/>
    <line id="Line_80" data-name="Line 80" x2="527" transform="translate(1345.5 554.5)" fill="none" stroke="#000" stroke-width="1"/>
    <line id="Line_81" data-name="Line 81" x2="527" transform="translate(1345.5 622.5)" fill="none" stroke="#000" stroke-width="1"/>
    <line id="Line_82" data-name="Line 82" y2="547" transform="translate(1512.5 142.5)" fill="none" stroke="#000" stroke-width="1"/>
    <line id="Line_83" data-name="Line 83" y2="547" transform="translate(1707.5 142.5)" fill="none" stroke="#000" stroke-width="1"/>
    <path id="Path_3" data-name="Path 3" d="M208.865,764.938s48.063-140.594,118.763-133.265S435.067,765.156,491.3,785.318s23.757-48.15,61.255-72.994,50.374,79.077,87.053,72.994,24.783-107.437,59.664-97.326S750.3,843.276,779.13,825.761s13.61-185.58,35.456-207.828,21.627,101.32,51.926,118.835,32.533-60.913,69.269-48.776,41.626,85.132,77.674,97.326,35.771-58.661,66.519-48.55,24.429,104.225,56.472,88.993,71.7-149.919,71.7-149.919" fill="none" stroke="#000" stroke-width="5"/>
    <text id="Thursday_2nd_April_2020" data-name="Thursday 2nd April 2020" transform="translate(1364 909)" fill="#070707" font-size="41" font-family="Poppins-Regular, Poppins"><tspan x="0" y="0">Thursday 2nd April 2020</tspan></text>
    <text id="_16:30" data-name="16:30" transform="translate(1609 973)" fill="#070707" font-size="41" font-family="Poppins-Regular, Poppins"><tspan x="-47.191" y="0">16:30</tspan></text>
    <path id="home-solid" d="M31.322,45.038,10.716,62.009V80.326A1.788,1.788,0,0,0,12.5,82.115l12.524-.032a1.788,1.788,0,0,0,1.779-1.788V69.6A1.788,1.788,0,0,1,28.6,67.809h7.153A1.788,1.788,0,0,1,37.537,69.6V80.286a1.788,1.788,0,0,0,1.788,1.794l12.52.035a1.788,1.788,0,0,0,1.788-1.788V62l-20.6-16.959a1.362,1.362,0,0,0-1.71,0ZM63.871,56.573l-9.343-7.7V33.391a1.341,1.341,0,0,0-1.341-1.341H46.927a1.341,1.341,0,0,0-1.341,1.341v8.115L35.58,33.274a5.365,5.365,0,0,0-6.818,0L.471,56.573a1.341,1.341,0,0,0-.179,1.889l2.85,3.465a1.341,1.341,0,0,0,1.89.182L31.322,40.456a1.362,1.362,0,0,1,1.71,0l26.29,21.653a1.341,1.341,0,0,0,1.889-.179l2.85-3.465a1.341,1.341,0,0,0-.19-1.892Z" transform="translate(805.141 129.792)"/>
    <path id="heart-solid" d="M51.658,35.39C45.533,30.171,36.424,31.11,30.8,36.91l-2.2,2.269L26.4,36.91c-5.611-5.8-14.731-6.739-20.855-1.52A16.048,16.048,0,0,0,4.437,58.626l21.626,22.33a3.5,3.5,0,0,0,5.063,0l21.626-22.33a16.038,16.038,0,0,0-1.1-23.236Z" transform="translate(1047.288 130.191)"/>
    <path id="birthday-cake-solid" d="M50.07,42.917c-3.132,0-3.494-3.576-8.326-3.576-4.854,0-5.233,3.576-8.354,3.576-3.1,0-3.515-3.576-8.354-3.576-4.788,0-5.277,3.576-8.326,3.576-3.146,0-3.487-3.576-8.354-3.576S3.14,42.917,0,42.917V33.976a5.366,5.366,0,0,1,5.365-5.365H7.153V12.518h7.153V28.612h7.153V12.518h7.153V28.612h7.153V12.518h7.153V28.612h1.788a5.366,5.366,0,0,1,5.365,5.365Zm0,14.306H0V46.494c4.846,0,5.227-3.576,8.354-3.576s3.493,3.576,8.354,3.576c4.788,0,5.277-3.576,8.326-3.576,3.146,0,3.487,3.576,8.354,3.576,4.846,0,5.227-3.576,8.354-3.576,3.072,0,3.493,3.576,8.326,3.576ZM10.729,10.729A3.566,3.566,0,0,1,7.153,7.153c0-3.465,3.576-2.571,3.576-7.153,1.341,0,3.576,3.3,3.576,6.259S12.713,10.729,10.729,10.729Zm14.306,0a3.566,3.566,0,0,1-3.576-3.576c0-3.465,3.576-2.571,3.576-7.153,1.341,0,3.576,3.3,3.576,6.259S27.019,10.729,25.035,10.729Zm14.306,0a3.566,3.566,0,0,1-3.576-3.576c0-3.465,3.576-2.571,3.576-7.153,1.341,0,3.576,3.3,3.576,6.259S41.325,10.729,39.341,10.729Z" transform="translate(812.516 267.346)"/>
    <path id="suitcase-rolling-solid" d="M40.485,19.278H5.784A5.783,5.783,0,0,0,0,25.062v26.99a5.783,5.783,0,0,0,5.784,5.784H7.711v1.928a1.927,1.927,0,0,0,1.928,1.928h3.856a1.927,1.927,0,0,0,1.928-1.928V57.835H30.846v1.928a1.927,1.927,0,0,0,1.928,1.928h3.856a1.927,1.927,0,0,0,1.928-1.928V57.835h1.928a5.783,5.783,0,0,0,5.784-5.784V25.062A5.783,5.783,0,0,0,40.485,19.278ZM38.557,45.3a.964.964,0,0,1-.964.964H8.675a.964.964,0,0,1-.964-.964V43.376a.964.964,0,0,1,.964-.964H37.593a.964.964,0,0,1,.964.964Zm0-11.567a.964.964,0,0,1-.964.964H8.675a.964.964,0,0,1-.964-.964V31.809a.964.964,0,0,1,.964-.964H37.593a.964.964,0,0,1,.964.964ZM17.351,5.784H28.918v9.639H34.7V5.784A5.783,5.783,0,0,0,28.918,0H17.351a5.783,5.783,0,0,0-5.784,5.784v9.639h5.784Z" transform="translate(1052.732 267.115)"/>
    <text id="_900" data-name="£900" transform="translate(933 206)" fill="#070707" font-size="41" font-family="Poppins-Regular, Poppins"><tspan x="-49.713" y="0">£900</tspan></text>
    <text id="_281" data-name="£281" transform="translate(1160 203)" fill="#070707" font-size="41" font-family="Poppins-Regular, Poppins"><tspan x="-42.394" y="0">£281</tspan></text>
    <text id="_81" data-name="£81" transform="translate(925 318)" fill="#070707" font-size="41" font-family="Poppins-Regular, Poppins"><tspan x="-30.77" y="0">£81</tspan></text>
    <text id="_572" data-name="£572" transform="translate(1165 318)" fill="#070707" font-size="41" font-family="Poppins-Regular, Poppins"><tspan x="-46.699" y="0">£572</tspan></text>
    <path id="home-solid-2" data-name="home-solid" d="M31.322,45.038,10.716,62.009V80.326A1.788,1.788,0,0,0,12.5,82.115l12.524-.032a1.788,1.788,0,0,0,1.779-1.788V69.6A1.788,1.788,0,0,1,28.6,67.809h7.153A1.788,1.788,0,0,1,37.537,69.6V80.286a1.788,1.788,0,0,0,1.788,1.794l12.52.035a1.788,1.788,0,0,0,1.788-1.788V62l-20.6-16.959a1.362,1.362,0,0,0-1.71,0ZM63.871,56.573l-9.343-7.7V33.391a1.341,1.341,0,0,0-1.341-1.341H46.927a1.341,1.341,0,0,0-1.341,1.341v8.115L35.58,33.274a5.365,5.365,0,0,0-6.818,0L.471,56.573a1.341,1.341,0,0,0-.179,1.889l2.85,3.465a1.341,1.341,0,0,0,1.89.182L31.322,40.456a1.362,1.362,0,0,1,1.71,0l26.29,21.653a1.341,1.341,0,0,0,1.889-.179l2.85-3.465a1.341,1.341,0,0,0-.19-1.892Z" transform="translate(34.141 18.792)"/>
    <path id="wallet-solid" d="M43.34,41.021H7.518a1.5,1.5,0,1,1,0-3.007H43.6a1.5,1.5,0,0,0,1.5-1.5A4.511,4.511,0,0,0,40.6,32H6.014A6.014,6.014,0,0,0,0,38.014V68.085A6.014,6.014,0,0,0,6.014,74.1H43.34a4.652,4.652,0,0,0,4.774-4.511V45.532A4.652,4.652,0,0,0,43.34,41.021ZM39.092,60.567A3.007,3.007,0,1,1,42.1,57.56,3.007,3.007,0,0,1,39.092,60.567Z" transform="translate(40.707 166)"/>
    <path id="border-all-solid" d="M51.2,32H3.938A3.938,3.938,0,0,0,0,35.938V83.2a3.938,3.938,0,0,0,3.938,3.938H51.2A3.938,3.938,0,0,0,55.134,83.2V35.938A3.938,3.938,0,0,0,51.2,32Zm-3.938,7.876V55.629H31.505V39.876Zm-23.629,0V55.629H7.876V39.876ZM7.876,79.258V63.505H23.629V79.258Zm23.629,0V63.505H47.258V79.258Z" transform="translate(38.372 340.33)"/>
    <path id="file-invoice-solid" d="M32.63,29H10.877v7.251H32.63ZM42.713,11.9,31.621.793A2.717,2.717,0,0,0,29.7,0H29V14.5h14.5v-.691A2.71,2.71,0,0,0,42.713,11.9ZM25.379,15.409V0H2.719A2.713,2.713,0,0,0,0,2.719v52.57a2.713,2.713,0,0,0,2.719,2.719H40.787a2.713,2.713,0,0,0,2.719-2.719V18.128H28.1A2.727,2.727,0,0,1,25.379,15.409ZM7.251,8.157a.906.906,0,0,1,.906-.906h9.064a.906.906,0,0,1,.906.906V9.97a.906.906,0,0,1-.906.906H8.157a.906.906,0,0,1-.906-.906Zm0,7.251a.906.906,0,0,1,.906-.906h9.064a.906.906,0,0,1,.906.906v1.813a.906.906,0,0,1-.906.906H8.157a.906.906,0,0,1-.906-.906Zm29,34.443a.906.906,0,0,1-.906.906H26.285a.906.906,0,0,1-.906-.906V48.038a.906.906,0,0,1,.906-.906h9.064a.906.906,0,0,1,.906.906Zm0-22.66V38.068a1.812,1.812,0,0,1-1.813,1.813H9.064a1.812,1.812,0,0,1-1.813-1.813V27.192a1.812,1.812,0,0,1,1.813-1.813H34.443A1.812,1.812,0,0,1,36.255,27.192Z" transform="translate(45 559.887)"/>
    <text id="DATE" transform="translate(1368 113)" fill="#070707" font-size="40" font-family="Poppins-Bold, Poppins" font-weight="700"><tspan x="0" y="0">DATE</tspan></text>
    <text id="CATEGORY" transform="translate(1514 111)" fill="#070707" font-size="35" font-family="Poppins-Bold, Poppins" font-weight="700"><tspan x="0" y="0">CATEGORY</tspan></text>
    <text id="TOTAL" transform="translate(1730 113)" fill="#070707" font-size="40" font-family="Poppins-Bold, Poppins" font-weight="700"><tspan x="0" y="0">TOTAL</tspan></text>
    <text id="_01_04_20" data-name="01/04/20" transform="translate(1364 192)" fill="#070707" font-size="30" font-family="Poppins-Light, Poppins" font-weight="300"><tspan x="0" y="0">01/04/20</tspan></text>
    <text id="_01_04_20-2" data-name="01/04/20" transform="translate(1364 260)" fill="#070707" font-size="30" font-family="Poppins-Light, Poppins" font-weight="300"><tspan x="0" y="0">01/04/20</tspan></text>
    <text id="_01_04_20-3" data-name="01/04/20" transform="translate(1364 328)" fill="#070707" font-size="30" font-family="Poppins-Light, Poppins" font-weight="300"><tspan x="0" y="0">01/04/20</tspan></text>
    <text id="_01_04_20-4" data-name="01/04/20" transform="translate(1364 396)" fill="#070707" font-size="30" font-family="Poppins-Light, Poppins" font-weight="300"><tspan x="0" y="0">01/04/20</tspan></text>
    <text id="_02_04_20" data-name="02/04/20" transform="translate(1364 464)" fill="#070707" font-size="30" font-family="Poppins-Light, Poppins" font-weight="300"><tspan x="0" y="0">02/04/20</tspan></text>
    <text id="_02_04_20-2" data-name="02/04/20" transform="translate(1364 530)" fill="#070707" font-size="30" font-family="Poppins-Light, Poppins" font-weight="300"><tspan x="0" y="0">02/04/20</tspan></text>
    <text id="_02_04_20-3" data-name="02/04/20" transform="translate(1364 598)" fill="#070707" font-size="30" font-family="Poppins-Light, Poppins" font-weight="300"><tspan x="0" y="0">02/04/20</tspan></text>
    <text id="_02_04_20-4" data-name="02/04/20" transform="translate(1364 668)" fill="#070707" font-size="30" font-family="Poppins-Light, Poppins" font-weight="300"><tspan x="0" y="0">02/04/20</tspan></text>
    <text id="Home" transform="translate(1562 192)" fill="#070707" font-size="30" font-family="Poppins-Light, Poppins" font-weight="300"><tspan x="0" y="0">Home</tspan></text>
    <text id="Home-2" data-name="Home" transform="translate(1562 464)" fill="#070707" font-size="30" font-family="Poppins-Light, Poppins" font-weight="300"><tspan x="0" y="0">Home</tspan></text>
    <text id="Health" transform="translate(1561 260)" fill="#070707" font-size="30" font-family="Poppins-Light, Poppins" font-weight="300"><tspan x="0" y="0">Health</tspan></text>
    <text id="Health-2" data-name="Health" transform="translate(1561 530)" fill="#070707" font-size="30" font-family="Poppins-Light, Poppins" font-weight="300"><tspan x="0" y="0">Health</tspan></text>
    <text id="Birthday" transform="translate(1549 328)" fill="#070707" font-size="30" font-family="Poppins-Light, Poppins" font-weight="300"><tspan x="0" y="0">Birthday</tspan></text>
    <text id="Birthday-2" data-name="Birthday" transform="translate(1549 598)" fill="#070707" font-size="30" font-family="Poppins-Light, Poppins" font-weight="300"><tspan x="0" y="0">Birthday</tspan></text>
    <text id="Holiday" transform="translate(1554 396)" fill="#070707" font-size="30" font-family="Poppins-Light, Poppins" font-weight="300"><tspan x="0" y="0">Holiday</tspan></text>
    <text id="Holiday-2" data-name="Holiday" transform="translate(1554 668)" fill="#070707" font-size="30" font-family="Poppins-Light, Poppins" font-weight="300"><tspan x="0" y="0">Holiday</tspan></text>
    <text id="_1_029" data-name="£1,029" transform="translate(1749 192)" fill="#070707" font-size="30" font-family="Poppins-Light, Poppins" font-weight="300"><tspan x="0" y="0">£1,029</tspan></text>
    <text id="_529" data-name="£529" transform="translate(1749 260)" fill="#070707" font-size="30" font-family="Poppins-Light, Poppins" font-weight="300"><tspan x="0" y="0">£529</tspan></text>
    <text id="_129" data-name="£129" transform="translate(1749 326)" fill="#070707" font-size="30" font-family="Poppins-Light, Poppins" font-weight="300"><tspan x="0" y="0">£129</tspan></text>
    <text id="_823" data-name="£823" transform="translate(1749 394)" fill="#070707" font-size="30" font-family="Poppins-Light, Poppins" font-weight="300"><tspan x="0" y="0">£823</tspan></text>
    <text id="_200" data-name="£200" transform="translate(1747 464)" fill="#070707" font-size="30" font-family="Poppins-Light, Poppins" font-weight="300"><tspan x="0" y="0">£200</tspan></text>
    <text id="_1010" data-name="£1010" transform="translate(1747 530)" fill="#070707" font-size="30" font-family="Poppins-Light, Poppins" font-weight="300"><tspan x="0" y="0">£1010</tspan></text>
    <text id="_293" data-name="£293" transform="translate(1749 598)" fill="#070707" font-size="30" font-family="Poppins-Light, Poppins" font-weight="300"><tspan x="0" y="0">£293</tspan></text>
    <text id="_320" data-name="£320" transform="translate(1749 666)" fill="#070707" font-size="30" font-family="Poppins-Light, Poppins" font-weight="300"><tspan x="0" y="0">£320</tspan></text>
  </g>
</svg>
